<?xml version="1.0" encoding="UTF-8"?>
<svg id="Vrstva_1" data-name="Vrstva 1" xmlns="http://www.w3.org/2000/svg" viewBox="0 0 574.01 1190.58">
  <defs>
    <style>
      .cls-1 {
        fill: #f15a24;
      }

      .cls-2 {
        fill: #efdcca;
      }

      .cls-3 {
        fill: #fff;
      }

      .cls-4 {
        fill: #ed1c24;
      }

      .cls-5 {
        fill: #f45540;
      }

      .cls-6 {
        fill: #ffbe80;
      }

      .cls-7 {
        fill: #fbe03b;
      }

      .cls-8 {
        fill: #fbb03b;
      }

      .cls-9 {
        fill: #737d91;
      }

      .cls-10 {
        fill: #af6127;
      }

      .cls-11 {
        fill: #c13d2b;
      }

      .cls-12 {
        fill: #c9345e;
      }

      .cls-13 {
        fill: #d3bda5;
      }

      .cls-14 {
        fill: #353c4f;
      }

      .cls-15 {
        fill: #30558c;
      }

      .cls-16 {
        fill: #594441;
      }

      .cls-17 {
        fill: #6d2a43;
        isolation: isolate;
        opacity: .3;
      }

      .cls-18 {
        stroke: #c9345e;
        stroke-width: 34px;
      }

      .cls-18, .cls-19, .cls-20, .cls-21, .cls-22 {
        fill: none;
        stroke-miterlimit: 10;
      }

      .cls-18, .cls-21 {
        stroke-linecap: round;
      }

      .cls-19 {
        stroke-width: 10px;
      }

      .cls-19, .cls-20, .cls-21 {
        stroke: #594441;
      }

      .cls-20 {
        stroke-width: 11px;
      }

      .cls-21 {
        stroke-width: 20px;
      }

      .cls-22 {
        stroke: #30558c;
        stroke-width: .98px;
      }
    </style>
  </defs>
  <g id="Vrstva_1-2" data-name="Vrstva 1">
    <g id="detsky_pokoj" data-name="detsky pokoj">
      <g>
        <ellipse class="cls-17" cx="233.23" cy="1165.54" rx="36.28" ry="25.04"/>
        <ellipse class="cls-17" cx="191.25" cy="1069.13" rx="36.28" ry="25.04"/>
        <ellipse class="cls-17" cx="515.71" cy="1070.87" rx="36.28" ry="25.04"/>
        <ellipse class="cls-17" cx="471.67" cy="1165.54" rx="36.28" ry="25.04"/>
        <g>
          <g>
            <path class="cls-16" d="M351.77,992.1c-15.74,0-28.5,8.13-28.5,22.4s12.76,22.4,28.5,22.4,28.5-8.13,28.5-22.4-12.76-22.4-28.5-22.4Z"/>
            <path class="cls-9" d="M351.76,1072.69c-10.04,0-20.16-5.36-20.16-17.34v-236.03c0-11.12,9.04-20.16,20.16-20.16s20.16,9.04,20.16,20.16v236.03c0,11.98-10.13,17.34-20.16,17.34Z"/>
          </g>
          <rect class="cls-16" x="162.23" y="780.61" width="379.07" height="167.49" rx="21.23" ry="21.23"/>
          <path class="cls-16" d="M351.77,1036.9c-15.74,0-28.5-8.13-28.5-22.4v47.39c0,14.27,12.76,22.4,28.5,22.4s28.5-8.13,28.5-22.4v-47.39c0,14.27-12.76,22.4-28.5,22.4Z"/>
          <path class="cls-16" d="M351.77,1028.79c-15.74,0-28.5-10.95-28.5-25.22v47.39c0,14.27,12.76,22.4,28.5,22.4s28.5-8.13,28.5-22.4v-47.39c0,14.27-12.76,25.22-28.5,25.22Z"/>
          <path class="cls-16" d="M351.77,920.16c-15.74,0-28.5-10.95-28.5-25.22v47.39c0,14.27,12.76,22.4,28.5,22.4s28.5-8.13,28.5-22.4v-47.39c0,14.27-12.76,25.22-28.5,25.22Z"/>
          <path class="cls-19" d="M358.88,1056.9l122.61-37.98c17.27-5.35,31.4,2.79,31.4,18.09s0,10.88,0,10.88"/>
          <path class="cls-20" d="M233.23,1142.5s0,7.24,0-8.06,13.63-33.21,30.29-39.8l95.36-37.74"/>
          <path class="cls-19" d="M352.07,1059.59l-129.46-40.57c-17.25-5.41-31.36,2.69-31.36,17.99s0,8.06,0,8.06"/>
          <path class="cls-20" d="M470.9,1142.5s0,7.24,0-8.06-13.63-33.21-30.29-39.8l-88.55-35.04"/>
          <circle class="cls-16" cx="191.25" cy="1049.96" r="25.61"/>
          <circle class="cls-16" cx="233.23" cy="1148.61" r="25.61" transform="translate(-743.88 501.34) rotate(-45)"/>
          <circle class="cls-16" cx="470.87" cy="1148.67" r="25.61" transform="translate(-177.41 89.95) rotate(-9.19)"/>
          <circle class="cls-16" cx="512.89" cy="1049.96" r="25.61"/>
          <rect class="cls-11" x="155.94" y="757.34" width="366.72" height="137.59" rx="28.52" ry="28.52"/>
          <path class="cls-5" d="M185.1,757.34H461.45c16.1,0,29.16,13.05,29.16,29.16h0c0,16.1-13.06,29.16-29.16,29.16H185.1c-16.1,0-29.16-13.05-29.16-29.16h0c0-16.1,13.06-29.16,29.16-29.16Z"/>
        </g>
        <g>
          <path class="cls-14" d="M464.34,368.18s-2.48,5.28-2.48,18.51,2.48,19.58,2.48,19.58c-6.46-.88-11.47-6.42-11.47-13.13v-11.83c0-6.71,5.01-12.25,11.47-13.13Z"/>
          <path class="cls-10" d="M465.82,368.87s-2.33,5.24-2.33,17.83,2.34,18.92,2.37,18.98c.09,.24,.12,.48,.1,.72-1.31-.02-2.48-.22-3.5-.6-.71-2.34-2.24-8.6-2.24-19.1s1.43-15.74,2.18-18.01c1.03-.39,2.21-.61,3.54-.62,.02,.27-.01,.55-.14,.81h.02Z"/>
        </g>
      </g>
      <g id="holka_pise" data-name="holka pise">
        <path class="cls-15" d="M233.96,61.6l155.25-9.63c47.36-2.94,88.19,33.12,91.13,80.48l12.77,205.88c3.36,54.13-37.86,100.79-91.98,104.15l-130.74,8.11c-54.13,3.36-100.79-37.86-104.15-91.98l-12.77-205.88c-2.94-47.36,33.12-88.19,80.48-91.13Z"/>
        <path class="cls-3" d="M437.86,662.49H240.75v-204.78c0-14.2,11.51-25.7,25.7-25.7h145.7c14.2,0,25.7,11.51,25.7,25.7v204.78h.01Z"/>
        <g>
          <polygon class="cls-12" points="574.01 851.13 98.95 846.36 238.61 657.37 435.86 659.35 574.01 851.13"/>
          <g>
            <line class="cls-22" x1="164.14" y1="847.01" x2="267.63" y2="657.66"/>
            <line class="cls-22" x1="255.47" y1="847.93" x2="303.64" y2="658.02"/>
            <line class="cls-22" x1="508.83" y1="850.48" x2="409.16" y2="659.09"/>
            <line class="cls-22" x1="417.5" y1="849.56" x2="373.15" y2="658.72"/>
            <line class="cls-22" x1="337.1" y1="848.75" x2="338.37" y2="658.37"/>
          </g>
        </g>
        <path class="cls-15" d="M133.46,13.05L194.82,1.89c62.97-11.45,123.39,30.37,134.84,93.33l-61.35,11.16c-62.97,11.45-123.39-30.37-134.84-93.33h0Z"/>
        <g>
          <rect class="cls-6" x="31.31" y="313.39" width="92.15" height="60.07" rx="30.03" ry="30.03" transform="translate(-274.23 326.1) rotate(-74.48)"/>
          <g>
            <rect class="cls-8" x="14.3" y="321.26" width="117.74" height="19.02" transform="translate(-27.14 7.19) rotate(-4.75)"/>
            <rect class="cls-1" x=".76" y="326.7" width="13.76" height="19.02" transform="translate(-27.81 1.79) rotate(-4.75)"/>
            <rect class="cls-4" x="1.06" y="337.42" width="13.76" height="4.75" transform="translate(-28.11 1.82) rotate(-4.75)"/>
            <rect class="cls-7" x="14.3" y="327.16" width="117.74" height="7.21" transform="translate(-27.14 7.19) rotate(-4.75)"/>
            <polygon class="cls-13" points="153.42 324.08 131 316.4 132.58 335.35 153.42 324.08"/>
            <polygon class="cls-2" points="153.42 324.08 131 316.4 131.49 322.29 153.42 324.08"/>
            <polygon points="153.42 324.08 146.04 321.55 146.56 327.79 153.42 324.08"/>
          </g>
          <path class="cls-6" d="M115.2,328.05l-32.47,34.99c-3.99,4.3-10.7,4.55-14.99,.56h0c-4.3-3.99-4.55-10.7-.56-14.99l32.47-34.99c3.99-4.3,10.7-4.55,14.99-.56h0c4.3,3.99,4.55,10.7,.56,14.99Z"/>
        </g>
        <path class="cls-18" d="M67.88,377.65c-60.12,89.42,202.48,73.1,202.48,73.1"/>
      </g>
      <line class="cls-21" x1="351.54" y1="862.16" x2="351.54" y2="580.86"/>
      <rect class="cls-11" x="150.22" y="409.59" width="391.08" height="302.05" rx="69.07" ry="69.07"/>
      <rect class="cls-5" x="182.2" y="426.88" width="322.06" height="221.44" rx="40.51" ry="40.51"/>
    </g>
  </g>
</svg>