<?xml version="1.0" encoding="UTF-8"?>
<svg xmlns="http://www.w3.org/2000/svg" viewBox="0 0 1064.47 1481.39">
  <defs>
    <style>
      .cls-1, .cls-2, .cls-3, .cls-4, .cls-5, .cls-6, .cls-7, .cls-8 {
        stroke-miterlimit: 10;
      }

      .cls-1, .cls-2, .cls-3, .cls-4, .cls-5, .cls-8 {
        fill: none;
      }

      .cls-1, .cls-6 {
        stroke: #00548f;
        stroke-width: 1.52px;
      }

      .cls-2 {
        stroke-width: 6.09px;
      }

      .cls-2, .cls-3, .cls-7, .cls-8 {
        stroke-linecap: round;
      }

      .cls-2, .cls-7 {
        stroke: #f3901e;
      }

      .cls-9, .cls-6 {
        fill: #00548f;
      }

      .cls-10 {
        fill: #ee5a24;
      }

      .cls-11, .cls-7 {
        fill: #fdcbab;
      }

      .cls-12 {
        fill: #fff;
      }

      .cls-13 {
        fill: #333;
      }

      .cls-14 {
        fill: #c9c9c9;
      }

      .cls-15 {
        fill: #05716f;
      }

      .cls-16 {
        fill: #1c1c1b;
      }

      .cls-3 {
        stroke: #f49f6c;
      }

      .cls-3, .cls-7 {
        stroke-width: 3.04px;
      }

      .cls-4 {
        stroke: #fff;
        stroke-width: 5px;
      }

      .cls-17 {
        mix-blend-mode: overlay;
      }

      .cls-5 {
        stroke: #05716f;
        stroke-width: 55px;
      }

      .cls-18 {
        isolation: isolate;
      }

      .cls-8 {
        stroke: #fdcbab;
        stroke-width: 40px;
      }
    </style>
  </defs>
  <g class="cls-18">
    <g id="Vrstva_1" data-name="Vrstva 1">
      <g>
        <path class="cls-9" d="M547.85,227.8l-4.77-7.37c-38.96-60.25-45.23-117.35-16.73-183.19L547.85,0h0c0,42.44,34.4,45.8,76.84,45.8h94.58c44.59,0,80.74,36.15,80.74,80.74v116.57l-252.16-15.32Z"/>
        <path class="cls-5" d="M632.54,1004.88s-464.95-95.67-227.97,289.25"/>
        <path class="cls-5" d="M692.83,1006.15s111.83,174.09,4.65,440.14"/>
        <path class="cls-9" d="M681.93,1426.89h66.98c14.74,0,26.71,11.97,26.71,26.71v27.78h-93.69c-6.14,0-11.12-4.98-11.12-11.12v-32.25c0-6.14,4.98-11.12,11.12-11.12Z"/>
        <path class="cls-9" d="M333.58,1266.87h93.69v27.78c0,14.74-11.97,26.71-26.71,26.71h-66.98c-6.14,0-11.12-4.98-11.12-11.12v-32.25c0-6.14,4.98-11.12,11.12-11.12Z" transform="translate(1245.61 2322.26) rotate(155.89)"/>
        <rect class="cls-9" x="482.97" y="133.71" width="359.18" height="226.78" rx="41.69" ry="41.69"/>
        <path class="cls-11" d="M785.78,967.71h-246.45l-83.42-284.12c-18.03-61.4,28-122.89,91.99-122.89h229.3c63.99,0,110.02,61.49,91.99,122.89l-83.42,284.12Z"/>
        <g class="cls-17">
          <circle class="cls-16" cx="779.18" cy="716.95" r="9.11"/>
          <circle class="cls-16" cx="833.6" cy="692.58" r="9.11"/>
          <circle class="cls-16" cx="819.19" cy="735.39" r="9.11"/>
          <circle class="cls-16" cx="779.18" cy="786.61" r="9.11"/>
          <circle class="cls-16" cx="786.38" cy="883.58" r="9.11"/>
          <circle class="cls-16" cx="741.02" cy="853.57" r="9.11"/>
          <rect class="cls-16" x="769.64" y="762.5" width="109.7" height="33.75" rx="16.88" ry="16.88" transform="translate(384.16 -266.24) rotate(23.77)"/>
          <path class="cls-16" d="M811.27,880.65c-14.29-3.77-26.63-14.09-32.39-28.91h0c-9.55-24.59,2.64-52.28,27.24-61.83l26.81-10.41c2.51-.98,5.06-1.73,7.61-2.26l-29.27,103.41Z"/>
        </g>
        <g>
          <circle class="cls-10" cx="784.51" cy="711.46" r="9.11"/>
          <circle class="cls-10" cx="838.92" cy="687.08" r="9.11"/>
          <circle class="cls-10" cx="824.52" cy="729.9" r="9.11"/>
          <circle class="cls-10" cx="784.51" cy="781.11" r="9.11"/>
          <circle class="cls-10" cx="791.71" cy="878.08" r="9.11"/>
          <circle class="cls-10" cx="746.34" cy="848.08" r="9.11"/>
          <rect class="cls-11" x="774.96" y="757" width="109.7" height="33.75" rx="16.88" ry="16.88" transform="translate(382.39 -268.86) rotate(23.77)"/>
          <rect class="cls-11" x="779.99" y="775.97" width="124.31" height="95.55" rx="47.77" ry="47.77" transform="translate(-241.1 360.78) rotate(-21.23)"/>
        </g>
        <g>
          <path class="cls-8" d="M837.08,812.73c487.78-199.71-37.84-191.53-37.84-191.53"/>
          <path class="cls-8" d="M97.63,796.37c327.26,40.84,425.45-175.18,425.45-175.18"/>
        </g>
        <rect class="cls-11" x="-.02" y="755.65" width="124.31" height="95.55" rx="47.77" ry="47.77" transform="translate(-45.44 4.81) rotate(-3.25)"/>
        <path class="cls-15" d="M662.56,1054.22c56.52,0,104.69-36.01,123.23-86.52h-246.45c18.53,50.51,66.71,86.52,123.23,86.52Z"/>
        <g>
          <rect class="cls-11" x="579.83" y="422.76" width="166.59" height="165.99"/>
          <circle class="cls-11" cx="663.08" cy="588.41" r="83.26"/>
        </g>
        <circle class="cls-11" cx="654.35" cy="283.12" r="25.47"/>
        <rect class="cls-11" x="537.53" y="123.64" width="252.16" height="443.22" rx="61.8" ry="61.8"/>
        <g>
          <circle class="cls-6" cx="669.19" cy="306.1" r="9.03"/>
          <circle class="cls-6" cx="590.29" cy="306.1" r="9.03"/>
        </g>
        <g>
          <line class="cls-2" x1="667.83" y1="239.95" x2="714.94" y2="239.95"/>
          <line class="cls-2" x1="562.21" y1="239.95" x2="609.32" y2="239.95"/>
        </g>
        <path class="cls-9" d="M695.75,215.28h-82.81c-37.05,0-67.09-30.04-67.09-67.09v-18.9c0-41.38,35.02-71.26,70.18-59.87l120.24,38.92c15.72,5.09,26.56,21.35,26.56,39.85h0c0,37.05-30.04,67.09-67.09,67.09Z"/>
        <rect class="cls-11" x="758.18" y="245.57" width="62.92" height="68.43" rx="13.98" ry="13.98"/>
        <rect class="cls-11" x="506.07" y="245.57" width="62.92" height="68.43" rx="13.98" ry="13.98"/>
        <path class="cls-12" d="M637.05,398.62c-26.66,0-48.27,21.61-48.27,48.27h96.55c0-26.66-21.61-48.27-48.27-48.27Z"/>
        <path class="cls-7" d="M676.26,345.42c0,20.81-16.87,37.68-37.68,37.68s-37.68-16.87-37.68-37.68"/>
        <path class="cls-3" d="M669.96,480.14c-17.33-17.33-45.43-17.33-62.76,0"/>
        <g>
          <circle class="cls-1" cx="687.61" cy="308.54" r="37.55"/>
          <circle class="cls-1" cx="586.49" cy="308.54" r="37.55"/>
          <line class="cls-1" x1="624.04" y1="308.54" x2="650.06" y2="308.54"/>
        </g>
        <g>
          <circle class="cls-12" cx="503.96" cy="279.79" r="13.58"/>
          <path class="cls-13" d="M523.28,272.35h-11.5c-3.83,0-7.25,2.73-7.76,6.53-.61,4.59,2.99,8.56,7.47,8.56h11.78c2.05,0,3.71-1.66,3.71-3.71v-7.66c0-2.05-1.66-3.71-3.71-3.71Z"/>
          <circle class="cls-12" cx="816.64" cy="279.79" r="13.58"/>
          <path class="cls-13" d="M796.81,287.22h12.01c3.83,0,7.25-2.73,7.76-6.53,.61-4.59-2.99-8.56-7.47-8.56h-12.29c-1.77,0-3.2,1.43-3.2,3.2v8.69c0,1.77,1.43,3.2,3.2,3.2Z"/>
          <path class="cls-4" d="M490.38,279.79s-16.03,.77-4.78,38.7c11.25,37.93,29.56,101.42,31.94,156.91,2.38,55.49,10.29,96.13,73.88,130.69,63.58,34.56,48.95,67.65,51.2,117.8,2.25,50.15,2.11,117.74,42.71,163.31,40.59,45.56,74.93,50.75,74.93,80.52"/>
          <path class="cls-4" d="M642.62,723.88c-.09-43.33,3.46-90.99,27.34-100.91,23.88-9.92,120.13-29.6,136.45-81.1,16.32-51.51-2.81-120.17,2.25-143.25,5.07-23.08,48.73-118.84,21.57-118.84"/>
          <rect class="cls-12" x="634.36" y="693.62" width="15.45" height="27.17" rx="5.04" ry="5.04"/>
          <rect class="cls-14" x="638.69" y="698.68" width="6.8" height="17.06" rx="2.97" ry="2.97"/>
        </g>
      </g>
    </g>
  </g>
</svg>